<?xml version="1.0" standalone="no"?><svg xmlns="http://www.w3.org/2000/svg" viewBox="0 0 1440 320"><path fill="#f6f6f5" fill-opacity="1" d="M0,224L30,218.7C60,213,120,203,180,208C240,213,300,235,360,245.3C420,256,480,256,540,229.3C600,203,660,149,720,138.7C780,128,840,160,900,186.7C960,213,1020,235,1080,224C1140,213,1200,171,1260,165.3C1320,160,1380,192,1410,208L1440,224L1440,320L1410,320C1380,320,1320,320,1260,320C1200,320,1140,320,1080,320C1020,320,960,320,900,320C840,320,780,320,720,320C660,320,600,320,540,320C480,320,420,320,360,320C300,320,240,320,180,320C120,320,60,320,30,320L0,320Z"></path></svg>